<svg id="Layer_1" data-name="Layer 1" xmlns="http://www.w3.org/2000/svg" xmlns:xlink="http://www.w3.org/1999/xlink" viewBox="0 0 200 200"><defs><style>.cls-1{fill:url(#linear-gradient);}.cls-2{fill:#fff;}</style><linearGradient id="linear-gradient" x1="-16.94434" y1="-17.67707" x2="242.14657" y2="243.03721" gradientUnits="userSpaceOnUse"><stop offset="0" stop-color="#ff931e"/><stop offset="1" stop-color="#c25a20"/></linearGradient></defs><title>logo</title><rect class="cls-1" width="200" height="200"/><path class="cls-2" d="M14.0376,156.37891V42.23877H35.25781V156.37891Zm11.49414-36.332,1.44678-21.30079q11.41259,0,19.73339-4.74218A40.71819,40.71819,0,0,0,60.457,81.22314a58.178,58.178,0,0,0,8.03809-18.126,82.89151,82.89151,0,0,0,2.6123-20.8584h21.542A94.66174,94.66174,0,0,1,88.148,71.417,79.16313,79.16313,0,0,1,75.00586,96.375a62.90656,62.90656,0,0,1-21.09961,17.32227Q41.44556,120.04736,25.53174,120.04688Zm46.37939,36.332-22.9082-50.5586,19.77344-8.1997,29.33886,58.7583Z" transform="translate(0.00024 0.00049)"/><path class="cls-2" d="M110.49414,156.37891V42.23877h21.2207V156.37891Zm14.62891-56.10547V92.396H156.793v7.87744Zm5.46679-5.46582V86.28711h15.51172q7.47657,0,11.29492-3.25537,3.81739-3.25562,3.81836-9.60547,0-5.7876-4.06054-8.72119-4.06055-2.93335-12.17774-2.93408h-14.0664l-1.92969-19.53223h16.80078q18.00293,0,27.85156,7.35449,9.84669,7.355,9.84571,20.93945,0,11.65577-7.63477,17.96485-7.6377,6.31128-21.62305,6.31006Zm0,61.57129V136.84668h20.33594q8.68066,0,13.50391-4.09961,4.82226-4.1001,4.82226-11.49414,0-7.314-5.06445-11.334-5.0625-4.01808-14.38672-4.01856H130.91016l-1.92969-8.52051h31.50976q14.87111,0,22.94922,7.2334,8.07716,7.23486,8.07813,20.417,0,14.95167-9.36524,23.14942-9.36327,8.19873-26.56445,8.19922Z" transform="translate(0.00024 0.00049)"/></svg>